<?xml version="1.0" encoding="utf-8"?>
<!DOCTYPE svg PUBLIC "-//W3C//DTD SVG 1.1//EN" "http://www.w3.org/Graphics/SVG/1.1/DTD/svg11.dtd">
<svg version="1.1" id="Taiwan" xmlns="http://www.w3.org/2000/svg" xmlns:xlink="http://www.w3.org/1999/xlink" x="0px" y="0px"
	 width="1015.733px" height="1221.247px" viewBox="0 0 1015.733 1221.247" enable-background="new 0 0 1015.733 1221.247"
	 xml:space="preserve">
<rect x="0" fill="#C6ECFF" width="1015.733" height="1221.247"/>

<path fill="#FEFEE9" stroke="#0978AB" stroke-width="1.4173" stroke-linejoin="round" stroke-miterlimit="3.8637" d="
	M533.321,985.622l1.396-0.535c-0.77-1.5-1.38-2.26-1.501-3.939c-1.468-1.656-2.42-3.434-2.831-5.59
	c-0.766-4.023-0.249-5.066,2.805-8.01l0.064-3.639l0.467,0.541l0.289,2.029l0.703,0.297l0.524-0.773l-0.524-0.953l0.708-0.779
	l-0.354-0.771l0.415-0.896c-0.557-0.631-1.524-2.25-1.392-3.16l-0.467-0.543l-0.589,0.592l0.584,2.209l-0.71,1.256
	c-1.141-5.814-4.214-10.609-6.392-16.002c-1.607-3.984-2.984-8.072-4.586-12.061c-0.854-2.131-1.987-4.186-2.795-6.33
	c-0.626-1.666-1.051-3.535-1.561-5.248c-0.075-0.252-0.522-0.648-0.584-0.896c-1.253-5.021-2.277-10.242-4.594-14.918l0.295-1.371
	l-0.755-1.791c0.983-1.885-0.201-4.686-0.693-6.475c-1.558-5.664-3.045-8.656-7.075-12.904c-0.996-1.051-2.467-2.326-3.957-2.707
	l-0.755-2.209c-0.109,0.115-1.217,0.236-1.404,0.238c-2.446-1.6-4.031-3.977-6.259-5.682c-0.137-0.104-3.862-2.162-4.095-2.266
	c-1.354-0.602-2.954-0.322-4.035-1.5l1.581-2.143c2.226-0.785,7.454-2.305,8.734-4.102l0.216-0.006
	c0.708-3.861-0.972,1.496-7.834,1.783l0.243-4.049c0.055-0.906-0.301-1.834-0.23-2.627c0.16-1.84,1.558-3.725,1.234-5.602
	l1.056-1.133c0.922-0.109,1.842-0.25,2.755-0.412l1.641,0.715l0.118-2.439c-0.641-0.277-1.882-0.945-2.283-1.561
	c0.037-0.805-0.227-2.76-0.991-3.275h-0.82c-0.083-1.299-0.651-6.031-0.164-6.916l3.28-0.295l0.532-0.42
	c-0.167-1.447-0.527-3.666-1.692-4.648c1.86-1.367,1.014-5.469,2.179-7.629c0.251-0.5,6.229-1.119,7.093-1.24l-1.521-1.076
	l-4.981,0.289l-0.996-0.953c-0.183-0.494,1.127-3.602,1.358-4.229l0.761-0.182l1.528-1.486l-0.701-1.609l0.532-1.496l1.168-0.887
	l0.649-1.553l1.823-1.125l0.179-0.6l-0.763-1.732l0.18-0.83l0.642-0.477c-0.714-0.598-1.494-1.879-1.633-2.809l0.413-1.609
	l1.056-0.469l0.763-1.971l0.531-0.354l1.521,0.715l0.532-0.174l2.343,1.314l0.819-0.059c-2.272-1.426-3.703-4.244-5.615-6.209
	l-0.179-1.133c2.589-4.316,2.557-7.102,3.013-11.916l0.591-0.477l0.523,0.477l-0.892,6.199l2.002-0.352l0.701,0.654l0.526-0.295
	c-0.137-0.668,0.091-1.76,0.472-2.322l-0.111-0.479l1.299-3.934l-0.999-3.342l-1.345-0.057l-0.649-0.543l-0.229-1.312l0.354-0.773
	l-0.236-1.074l1.121-1.965l-1.116-0.418l-0.879-1.551l1.476-2.975c0.421-0.012,1.355-0.242,1.589-0.656l0.643,0.064l0.474-1.371
	l-1.7-0.838l-0.354,0.355l-1.818,0.18l-0.701-0.895c0.521-0.822,0.482-2.496,0.061-3.344l1.121-1.189l0.768-3.336l2.822-0.289
	l0.354-0.361c-2.43-0.34-5.091-3.512-4.69-6.025l5.104-0.768l-1.167-1.074l-3.051,0.23l-0.295-0.83l0.944-1.668l-1.116-1.133
	l-0.052-1.133l1.64,0.121l0.591-1.666l-1.403,0.354c-0.479-0.559-1.616-1.049-2.351-1.018l-0.472-1.191
	c1.302-4.541-0.338-10.408-0.912-15.021l-0.885,1.25l-0.467-0.533c4.112-7.982,4.359-17.904,11.096-24.354l0.943-0.117
	c0.462,0.461,0.289,1.947,0.289,2.562l1.411-1.248l0.999,1.609l1.508,0.396l1.214,1.27c0.066-1.07-3.051-4.322-3.772-5.182
	c-0.449-1.652,0.614-2.955,0.892-4.469c0.14-0.754-0.101-1.676,0-2.447c0.227-1.721,1.025-5.918,2.664-7.137l-0.116-0.715
	l-1.411,0.354l-0.467-0.361c1.308-2.607,4.979-8.594,7.783-9.455l-0.763-0.656c-0.013-0.852,3.567-4.715,4.253-5.529l0.701-0.057
	c2.291-2.418,4.047-4.764,6.023-7.492l-0.349-1.012c0.63-4.906,3.985-4.707,4.902-7.139c0.318-0.846,0.38-2.006,0.774-2.801
	c0.568-1.143,1.665-2.129,2.244-3.27c0.91-1.791,1.506-3.859,2.316-5.709c0.305-0.697,0.726-1.477,1.32-1.939l0.865-0.672
	c0.938-2.254,1.792-4.648,2.849-6.844c1.315-2.736,4.323-6.68,4.027-9.91h1.059c0.273-3.916,2.972-4.996,4.304-8.387l1.18-0.145
	l0.888-2.1c1.572-0.232,3.812-1.874,4.81-3.033l1.121,0.455c0.696-2.525,2.48-6.235,4.554-7.911
	c0.788-0.637,2.046-0.794,2.704-1.646c-0.056-0.705,0.134-2.386,0.788-2.857l-0.151-0.548l-1.136,0.477
	c-0.412-1.178,1.22-5.605,1.595-6.864l-0.472-1.09l2.795-4.192l-0.15-0.649c1.586-2.974,7.228-7.77,9.968-10.82l2.1-0.021
	l2.016,1.653l1.239,0.071c0.596,0.166,1.464,2.405,1.726,2.952l0.649,0.065c-1.07-5.136-3.15-6.273-7.796-7.593l-0.209-0.649
	l2.973-5.218c0.107-0.19,1.025-0.714,1.143-0.91c0.854-1.432,1.363-3.158,2.157-4.633c0.98-1.823,1.893-2.696,2.705-5.054
	c-0.189-0.65-0.413-1.302-0.566-1.963l1.287-3.94l1.339,0.671c0.331-0.909,1.379-2.396,2.35-2.735
	c-0.313-3.48,0.7-8.875,3.379-11.281c-0.083-1.156,0.353-2.936,1.022-3.892c2.192-0.58,4.789-5.741,4.147-7.91
	c0.922-0.917,1.703-2.551,1.936-3.818c0.551-0.528,2.657-0.665,3.354-0.657c-0.919-1.688-0.957-3.514,0.28-4.93l1.242-0.146
	c0.828-0.827,2.027-2.839,1.837-4.093l0.755-0.209l1.043-1.228l0.917-0.15c1.449-3.313,3.734-3.734,5.414-5.883
	c0.252-0.322,1.23-3.025,1.562-3.56c0.814-1.307,2.117-2.399,2.959-3.694c0.101-0.154,0.976-3.971,1.147-4.433
	c0.626-1.677,1.724-3.358,2.231-5.06c0.496-1.658,0.32-3.738,0.885-5.356c0.884-2.531,2.511-5.26,3.675-7.702
	c0.183-0.382,0.229-1.611,0.407-2.05c0.892-2.188,2.458-4.215,3.819-6.128c0.437-0.615,2.07-0.311,2.695-0.39
	c1.305-0.166,2.89-0.966,4.175-0.96c1.259,0.006,2.944,0.831,4.146,0.115l-2.021-1.769l-0.458-1.631l-0.651,0.043l-0.308-1.147
	l1.68-3.71c2.323-0.283,3.419-2.216,4.271-4.215c2.518-1.593,8.581-2.127,11.359-1.711c0.098,0.015,3.084,1.585,3.372,1.733
	c0.067,0.035,4.301-0.127,4.639-0.138l0.611-1.075c-1.597-0.744-3.173-0.616-4.895-0.68l-0.684-1.205l-1.194,0.361l-0.682-0.989
	l-0.708,0.102c1.724-2.683,3.957-4.314,6.048-6.576c1.625-1.757,0.644-5.438,2.33-7.391c0.673-0.779,1.711-1.483,2.517-2.167
	c0.229-0.196,1.146-0.508,1.475-0.642l0.853,0.557c0.484-0.584,1.829-1.602,2.672-1.474c0.088-0.125,0.576-0.757,0.608-0.858
	c0.446-1.438,0.818-3.031,1.372-4.425c0.077-0.192,0.738-0.813,0.769-0.96c0.247-1.23,1.2-7.689,2.087-8.207l0.925-0.368
	c-0.466-1.482-1.112-4.288-0.769-5.868l-0.748-0.448l-0.256-0.931c0.273-1.313,1.375-3.15,2.447-3.97l0.919-0.094l1.123,0.779
	l1.404-0.029c0.287-0.504,0.202-1.523-0.072-2.006l1.411-0.303l0.715-1.018l-0.939-1.912c1.017-1.753,0.681-3.572,1.443-5.399
	c0.424-1.014,1.016-2.03,1.509-3.017c0.035-0.071,2.225-2.099,2.37-2.238l1.889,0.144l0.604-0.476
	c-0.312-0.597-2.047-1.081-2.631-1.184c0.821-2.913,2.201-5.455,5.146-6.749l-0.467-1.039l0.4-1.134
	c0.927-0.712,2.134-1.463,2.959-2.273c0.213-0.209,0.655-1.226,0.892-1.509c0.218-0.26,1.377-1.14,1.483-1.328
	c0.929-1.656,1.617-3.783,2.37-5.543l-0.309-0.606c0.591-1.578-0.484-2.874,0.452-4.547c1.544-2.756,3.532-5.088,5.604-7.442
	c1.143-1.298,5.13-2.466,6.555-3.349c1.751-1.085,3.25-2.727,5.001-3.811c1.407-0.871,3.229-1.279,4.748-2.195
	c0.341-0.206,0.498-0.397,0.875-0.527c1.04-0.359,2.405-0.226,3.479-0.527c1.76-0.493,3.886-1.28,5.563-2.006
	c0.975-0.422,2.104-1.634,3.222-1.624l0.479,0.389c0.303-0.276,3.059-2.843,3.201-2.923c1.438-0.815,3.571-1.137,5.125-1.797
	c0.719-0.305,1.361-0.953,2.08-1.263c2.112-0.912,4.729-2.005,6.935-2.627c2.815-0.794,5.321-0.174,8.063,0.433
	c0.638,0.141,1.673-0.042,2.331-0.058l1.876-1.696c2.928-1.134,6.78,0.453,9.816-0.563c1.436-0.48,2.924-1.765,4.331-2.404
	c1.559-0.708,3.388-1.039,4.915-1.797c2.226-1.106,9.02-6.465,8.962-8.922l-2.291-1.898l2.757-2.115l1.067-2.579
	c0.923-2.232,1.923-2.114,3.08-3.787c0.073-0.107,1.647-3.481,1.705-3.652c0.067-0.206-0.152-1.039-0.085-1.249
	c0.44-1.38,1.241-2.854,1.823-4.193l2.593,0.758c2.378-1.821,2.627-2.667,3.366-5.189c1.243-0.645,8.143-3.744,8.302-4.916
	l2.092,0.909c1.148-0.296,2.403-0.849,3.398-1.494l-0.15-0.765l0.348-0.808c0.499-0.392,3.388,0.995,3.99,1.234l0.932-0.469
	l1.674,0.253l2.368-1.407l1.353,0.137l1.384,1.227c0.9-0.04,2.186,0.329,3.024,0.606c1.547,2.569,2.854,1.951,4.062,2.866
	c4.592,3.478,4.753,6.326,5.918,11.483l0.952,0.996l1.97-0.39l0.524,0.614l-0.479,1.992l2.087,3.522
	c0.943,0.661,3.182,1.826,4.41,1.682l0.845-1.335l1.299-0.029c0.474-0.591,1.946-2.147,2.764-2.267l0.263,0.549l-2.075,2.664
	l0.355,1.097l-1.57,2.295c0.052,1.469,4.025,3.495,5.322,4.194l0.275,2.129l0.532,0.39l2.349-0.542l2.118,1.791l0.928-0.145
	l0.903,0.787l1.95,0.26l-0.314,1.783l0.997,1.219l-0.229,0.534l-0.984,0.469l-1.069-0.678l-0.289,3.09
	c0.83-1.219,3.052-2.303,4.45-2.555c0.181-0.846,0.907-2.414,1.699-2.887l-1.022-0.354l-0.047-0.324l1.384-1.321l1.406,0.137
	l0.365,0.606l-0.348,0.917c2.187,0.145,3.447,3.316,4.745,3.371l0.544-0.202l0.191-1.025l1.292,0.195
	c0.118,0.72,0.706,2.306,1.457,2.642l2.65,0.065c0.255,0.903,0.482,1.815,0.696,2.728l1.672,0.152
	c1.259-3.332,6.435-2.167,8.242-0.065c1.69-0.725,4.908-0.341,6.373,0.758l5.268-0.628l0.894-1.003l0.762,0.18l-0.144,1.299
	l-1.116,1.22l0.465,0.772l1.307-0.022c0.134,0.887-0.134,2.583-0.84,3.234c0.607,1.335-0.776,3.472-0.598,4.323
	c0.403,1.935,1.474,4.721,3.209,5.839l-0.407,1.184c1.04,2.405,0.319,7.343,3.255,8.438l-1.004,1.061l1.128,0.411
	c1.325-0.71,2.327-0.662,3.646-0.938c2.888-0.604,3.884-1.732,6.543,0.281l0.985,1.977l0.649-0.093l0.938-0.845l1.863,1.299
	l0.189,1.04c-0.205,1.038-1.901,1.63-2.802,1.718c-0.919,0.995-1.824,2.281-2.842,3.126c-0.161,0.134-0.971,0.316-1.2,0.454
	c-0.845,0.509-1.521,1.463-2.382,1.949c-0.779,0.441-2.132,0.69-2.977,0.965c-4.396,1.432-7.051,2.596-8.532,7.098
	c-1.726,0.397-2.198,1.956-3.479,2.786c-2.961,1.92-2.691-0.564-4.244,3.833c-0.181,0.508-0.539,1.401-0.343,2.021
	c-1.54,2.386-2.972,4.046-5.116,5.789l-2.259,1.833c-0.218,0.251-1.229,2.438-1.527,2.895c-0.692,1.058-1.646,1.979-2.351,3.031
	c-2.5,3.738-4.969,20.351-4.571,25.876c0.281,3.924,1.619,7.528,2.912,11.194c0.043,0.121,0.071,0.917,0.084,1.09l-1.849,0.44
	l0.425,0.448l1.714,0.426l0.473,0.605l-0.191,1.242c0.084,0.156,0.766,1.338,0.775,1.43c0.397,3.482,0.684,7.036,1.2,10.502
	c0.479,3.228,3.697,10.022,6.062,12.356c0.958,0.946,2.696,1.217,3.958,1.566l0.204,0.39l-0.178,0.643l-4.731-0.823l-0.84,1.494
	c-0.015,1.696,0.171,3.034,1.627,4.006l0.768-0.635l0.859,0.187l0.355,0.982l-0.879,0.735c-1.233,2.237,1.366,11.337-0.257,12.422
	c-2.248,0.249-4.81,1.213-6.791,2.267c-1.139,0.97-1.036,3.832-0.663,5.139c1.329,0.649,2.534,2.992,2.802,4.354l1.662,0.367
	l0.201,0.657l-0.55,0.527c-3.017-0.038-6.315,2.94-8.309,4.836c-0.424,4.001-3.875,5.222-4.811,7.42
	c-1.121,2.633-2.054,4.993-2.453,7.86c-0.216,1.554-0.105,3.225-0.38,4.764c-0.438,2.466-1.323,5.106-2.274,7.41l-1.714,4.152
	c-0.128,0.551,0.021,0.884,0.036,1.448l0.074,2.897c-0.023,0.866-0.88,2.343-0.34,3.133c-0.188,0.707-0.575,2.475-1.202,3.067
	c-0.834,0.786-3.774,3.202-3.976,4.295c-0.3,1.634-0.462,4.222-1.051,5.723c-0.177,0.447-0.474,0.584-0.774,0.958
	c-1.562,1.932-2.646,3.552-5.406,3.445c-0.983,0.396-2.397,3.632-2.737,4.547c-1.027,0.624-6.123,3.633-6.323,3.861
	c-2.704,3.102-4.333,5.726-5.756,9.729c2.882,6.383,2.407,6.225,0.512,12.92c-0.486,1.715-6.254,5.588-7.631,7.413l-1.641,2.926
	c-0.465,0.83-1.156,1.977-1.181,3.021l0.161,2.464c0.053,0.82,0.132,1.929,0.527,2.705c2.646,5.202,2.21,5.385,6.338,9.311
	c0.877,0.834,0.972,3.723,0.557,4.791h-1.088l-0.854,1.748c-4.462,2.506-7.711,7.064-7.14,12.43l0.926,1.379l-0.295,0.477
	l0.465,0.418c-1.675,4.961-1.068,8.008-1.9,12.666c-0.453,2.535-0.801,5.168-1.372,7.674c-0.466,2.043-1.909,4.166-2.599,6.17
	c-0.476,1.381-0.783,2.916-1.163,4.332c-0.382,1.418-2.102,2.4-2.276,4.207c-0.206,2.115-0.283,4.785-0.191,6.908
	c0.058,1.312,0.61,2.686,0.664,3.998c0.032,0.777-0.848,2.662-1.108,3.207c-0.713,1.49-1.371,2.861-2.241,4.268
	c-2.047,3.314-3.203,4.604-1.46,8.324c-0.373,1.051-0.99,2.203-1.207,3.264c-0.53,2.584-0.581,5.361-1.193,7.918
	c-0.062,0.262-1.042,1.688-1.2,2.072c-0.805,1.953-1.274,5.146-1.482,7.195c-0.189,1.855,0.146,3.881-0.112,5.717
	c-0.019,0.133-1.837,7.754-2.021,8.148c-0.699,1.492-1.939,2.975-2.513,4.498c-0.465,1.234-0.36,2.883-0.748,4.166
	c-0.251,0.832-1.035,1.656-1.26,2.488c-0.427,1.594,0.016,3.76,0.262,5.332c0.177,1.117,0.608,2.82,1.95,3.158l0.045,1.01
	l0.696,0.846c-3.416,3.84-3.797,5.365-4.429,10.602c-0.107,0.889-0.048,1.414-0.275,2.281c-0.426,1.629-1.644,3.695-2.343,5.268
	c-0.919,4.244-0.625,3.404-2.822,6.664c-0.121,2.631-0.043,5.506-0.373,8.107c-0.119,0.939-0.885,1.963-1.022,2.908
	c-0.04,0.273,0.379,1.535,0.335,1.789c-0.342,1.967-1.157,4.129-1.699,6.064c-0.022,0.078-0.467,0.668-0.539,0.771l-1.471,0.166
	c-1.043,0.611-5.356,6.441-5.519,7.16c-0.266,1.178-0.445,2.688-0.859,3.805c-0.121,0.326-1.119,1.457-1.188,1.719
	c-0.598,2.283-0.802,4.973-1.181,7.316l0.919,1.863c0.311,1.709-3.434,3.855-4.326,4.785c-2.224,2.32-0.028,8.887,1.366,11.102
	l-1.863,5.35c0.345,0.559,0.399,1.654,0.209,2.266l1.378,2.939l0.88,0.367l0.4,0.656l-2.126,2.064l-1.575-0.547
	c-0.585,1.326-1.851,3.941-2.919,4.979l-3.044-0.086c-1.087,0.734-3.687,2.961-3.963,4.375l0.459,1.256
	c-2.865,2.139-1.703,2.541-2.278,5.283c-0.426,2.033-1.138,4.119-1.691,6.127c-0.255,0.922-1.115,1.676-1.312,2.967l-1.123,0.83
	l-0.301,1.248c-1.911,0.811-1.162,4.318-1.451,5.234c-1.15,3.645-3.796,6.539-6.167,9.426l-1.7,0.346
	c-2.484,2.676-3.101,7.814-4.718,11.051c-1.138,2.277-3.434,5.848-5.039,7.824c-0.059,0.072-2.188,1.227-2.41,1.35
	c-0.08,0.658-0.542,2.311-1.192,2.678c-2.609-0.357-5.112,0.445-7.189,2.127l-1.847,1.496c-0.552,0.545-1.335,3.627-1.259,4.166
	c0.429,3.066,3.277,8.139,1.6,11.281l-0.932,0.117c-0.141,0.15-1.317,1.391-1.357,1.479c-0.415,0.908-0.475,2.24-0.788,3.213
	c-0.499,1.547-1.707,3.719-2.611,5.109c-0.146,0.066-1.231,0.521-1.292,0.584c-2.512,2.582-5.065,5.648-7.775,7.99
	c-1.372,1.186-3.653,2.268-5.224,3.24c-1.463,0.908-3.74,1.234-5.334,2.043c-2.111,1.074-3.7,3.543-5.643,4.852l-3.753,2.279
	c-1.218,0.742-1.495,0.859-1.734,1.031c-0.19,0.137-0.358,0.309-0.967,0.859l-1.648,1.496c-0.788,1.123-1.787,3.289-2.31,4.576
	c-1.745,4.303-1.041,12.158-3.491,15.07c-1.414,1.68-3.501,2.975-4.875,4.676c-0.063,0.08-1.945,3.695-2.009,3.863
	c-1.028,2.73-1.708,5.674-2.624,8.451c-0.732,2.223-1.784,4.477-2.382,6.729c-0.755,2.84-1.178,5.93-1.752,8.82l-0.354,0.289
	c-1.134,3.223-2.148,6.609-3.438,9.766c-0.394,0.963-1.377,1.883-1.712,2.852l-4.574,13.215c-0.11,0.318-1.087,1.367-1.234,1.725
	c-0.606,1.48-1.171,3.5-1.548,5.061c-1.713,7.094,0.191,19.238,1.292,26.447c0.011,0.068-0.078,0.238-0.101,0.307
	c-0.1,0.305-0.83,2.432-0.85,2.609c-0.109,1.025,0.261,2.236,0.217,3.283c-0.057,1.336-0.958,2.93-0.906,4.229
	c0.057,1.447,0.504,3.154,0.734,4.598l-1.011,2.562c0.537,1.207,0.729,3.07,0.44,4.359l0.703,0.246l0.224,0.477
	c-6.166,4.777,0.349,8.641,0.458,10.92c-0.164,0.369-2.068,4.564-2.064,4.643c0.118,3.131-0.096,6.35,1.049,9.318
	c0.305,0.791,1.419,2.09,1.09,2.996c-1.524,0.842-3.425,3.354-3.466,5.168l-1.517,0.527l-0.354,0.895l0.223,1.256
	c-0.747,2.898-7.121,3.941-7.531,4.547c0.14,1.781-0.41,3.668-0.751,5.387c-1.082,5.451,1.47,8.262,4.248,12.6l-0.184,2.086
	l0.919,1.914l-0.236,0.656c-0.458,0.418-1.665,0.412-2.211,0.289l-0.926-0.605l-1.312-3.949l-1.686-0.188
	c-0.845-1.225-2.531-3.494-3.812-4.324l-2.211-0.252l-1.673-1.74l-0.531,1.133l-0.524,0.238l-0.689-1.615
	c-0.704-0.75-2.774-1.031-3.713-0.982l-4.285-3.184l-0.701,0.115l-3.215,3.32c-0.351,2.061-1.017,7.131-3.644,7.383l-1.279-0.482
	c-0.786-0.984-1.542-1.996-2.311-2.994l-1.101,0.049c-1.173-2.918,1.258-7.652,0.694-11.215c-0.659-4.174-3.431-5.08-4.961-7.551
	l-0.958-2.627c-1.305-3.58-1.172-4.621,1.994-7.096c-0.39-0.791-0.564-2.443-0.157-3.277c3.163-1.1,2.552-5.238,0.973-7.398
	l0.76-1.248c0.741-0.201,2.631-1.033,2.862-1.898c-0.471-1.736-1.88-9.164-3.676-9.803c-0.233-0.854-0.553-2.645-0.45-3.504
	l0.122-1.035c-1.591-5.193-3.979-10.883-4.113-16.369c-1.597-1.564-1.792-4.125-3.06-5.805c-0.106-0.141-3.526-3.105-3.884-3.42
	c-0.045-0.041-0.413-1.078-0.459-1.199l-0.013-0.225c-0.093-2.033-0.803-7.93-2.219-9.152l0.013-2.75
	c-0.876-1.48-4.068-6.816-5.439-7.838c-1.258-0.938-2.908-0.775-4.066-2.945c-0.857-1.604-0.854-3.582-1.903-5.262
	c-1.018-1.629-2.777-3.551-4.291-4.67c-1.013-0.748-2.418-1.184-3.491-1.869c-1.264-0.807-2.386-1.916-3.662-2.699
	c-1.548-0.951-3.331-1.74-4.946-2.582c-2.659-1.391-5.227-3.289-7.967-4.562c-2.683-1.248-6.04-2.363-7.802-4.93
	c1.061-0.445,5.43,2.383,6.462,2.951l0.813-0.18l0.474-0.895c-0.033-1.168-3.311-3.592-4.358-4.072l-1.635,0.535l-1.049-0.369
	l-1.523,1.191l-0.932-0.246c-0.941-1.08-2.163-2.195-2.611-3.586l1.063-0.578l0.348-1.207l-0.997,0.174
	c-0.726-0.93-1.247-3.301-1.443-4.418l-0.591,1.307l-0.814-0.123l-0.46-2.209l-0.989,0.182c-0.504-0.354-0.953-0.965-1.339-1.438
	l0.34,2.744l-0.531,1.133c-0.82-0.117-2.823-4.387-3.365-5.385l-1.807-0.779l-0.177,0.354l0.631,3.645l3.201,2.102l0.526,1.076
	l-0.532,0.533c-4.844-2.221-6.551-5.307-10.708-7.674l-1.583,0.594c-0.361-0.49-0.402-1.539-0.222-2.094
	c-0.476-0.834-1.03-1.549-1.76-2.158c-1.457-1.219-3.359-2.516-4.646-3.885c-1.878-2-3.58-4.531-5.29-6.697
	c-0.348-0.439-1.005-0.75-1.337-1.197C539.842,993.915,536.885,987.368,533.321,985.622z"/>
<path fill="#FEFEE9" stroke="#0978AB" stroke-width="1.4173" stroke-linejoin="round" stroke-miterlimit="3.8637" d="
	M376.739,693.997l-0.224-1.566l-1.26-1.473c1.424-0.969,2.855-2.836,3.525-4.41c0.421,0.729,1.506,2.035,2.354,2.316l-0.06,0.895
	l-3.878,2.152L376.739,693.997z"/>
<path fill="#FEFEE9" stroke="#0978AB" stroke-width="1.4173" stroke-linejoin="round" stroke-miterlimit="3.8637" d="
	M375.946,721.944l-1.294-0.656l-1.062,0.6l-0.236-0.592c0.501-0.652,1.534-2.506,1.292-3.4c-1.519-1.43-3.516-4.299-3.832-6.432
	l-2.467,0.066l-0.938,2.027l-0.65,0.182c-0.728-0.506-1.722-1.57-2-2.439l0.119-0.715c0.871-0.961,1.389-1.51,2.704-1.971
	l2.229,0.174l1.76-1.611l3.006,1.604l1.588-0.123l0.413,1.963c1.01,0.504,2.089,2.834,2.415,3.811l-0.532,0.543l-0.82-0.838
	l-0.879,0.303l-0.997,2.859l0.178,0.656l1.876-0.244l0.53,0.598C376.354,720.172,377.04,719.297,375.946,721.944z"/>
<polygon fill="#FEFEE9" stroke="#0978AB" stroke-width="1.4173" stroke-linejoin="round" stroke-miterlimit="3.8637" points="
	379.566,722.262 378.707,724.26 377.244,724.801 376.594,724.088 376.063,724.327 375.478,724.03 375.413,723.315 376.298,723.25 
	377.238,722.241 378.589,721.938 "/>
<path fill="#FEFEE9" stroke="#0978AB" stroke-width="1.4173" stroke-linejoin="round" stroke-miterlimit="3.8637" d="
	M362.473,717.44l-2.755,2.562l-2.586,0.361l-0.348,0.959c0.764,1.676,0.367,2.1,0.415,3.451c0.061,1.75,0.853,1.498,0.064,3.637
	l-1.816,1.732l0.708,1.545l-0.999,0.961c0.289,0.533,1.702,2.803,1.536,3.334l-0.413,0.533c-1.396-0.246-4.89-0.275-5.991,0.908
	l-1.937-0.475l-1.471,0.959l-1.411,0.059l-0.413-0.412c0.206-0.859,2.415-2.389,3.11-2.809l1.411,0.83
	c1.5-0.051,2.995-2.238,3.398-3.463l-0.118-1.373l-1.884-2.498l0.288-0.656l1.707,0.533c0.706-1.168,0.186-2.516,1.228-3.695
	l-0.119-0.541l-1.469-0.83l-0.296-0.83c0.708-0.777,0.81-2.742,0.644-3.695c0.902-0.654,2.01-2.021,2.341-3.104l1.059-0.123
	l1.588,1.307l3.646,0.174L362.473,717.44z"/>
<path fill="#FEFEE9" stroke="#0978AB" stroke-width="1.4173" stroke-linejoin="round" stroke-miterlimit="3.8637" d="
	M371.45,741.202l-1.647,0.115l-0.472-1.01l-1.824,0.482l-1.115-1.312l0.761-0.656l3.115,0.295l0.584-1.191l0.998-0.359l0.413-0.715
	l-1.646-0.895c-0.67,0.891-2.559,1.707-3.583,1.971l-1.173-0.535c0.942-0.789,1.904-2.16,2.282-3.334l-0.118-0.838l-1.116-1.371
	l0.584-0.354c1.207,0.295,3.197-0.141,4.232-0.787l0.229-1.783l1.004,1.906l-0.295,1.848l0.827,0.238l1.056,1.84l0.708,0.182
	c-0.012-0.672,0.432-1.705,0.939-2.15l-0.061-1.012l0.879-0.477l0.355-0.715l-1.004-2.857l0.169-0.656l2.354-0.902l1.76,0.895
	l0.762-1.732l0.708,0.123l0.413,0.535c0.051,0.9-0.238,2.777-0.938,3.457l0.473,3.334c0.632-0.117,1.394-1.012,1.646-1.551
	l0.229-2.439l0.591-0.361l0.523,0.297l0.473,1.848l0.65,0.295l1.816-1.609l-0.465-0.477l-1.123,0.361l-0.288-0.6l2.283-3.631
	l0.885,0.65l0.179,2.209l1.116,1.363l1.173,0.123l0.769-1.848c1.108,0.711,2.374,3.467,2.646,4.641
	c0.354,1.527-0.488,2.543,0.826,4.41l2.119,0.953l-0.164,1.639l-3.478,0.865l-1.352-2.324c-1.062-0.375-4.771,0.18-5.88,0.369
	c-0.972,1.004-2.083,2.434-3.168,3.277c-0.183,0.141-1.528,0.434-1.818,0.598c-1.617,0.91-4.491,3.006-4.81,4.953l0.354,0.6
	l1.115,0.057l0.177,0.477l-0.997,1.018l-0.06,2.021l-0.465,0.238c-1.362-0.875-5.852-0.201-7.285,0.129l-1.004-0.469l-0.769-3.162
	l-0.523-0.418l-2.88-0.174l-0.65-1.365l-0.644-0.361l-0.473-1.371l-0.827-0.41c0.129-2.527-0.177-1.701,0.933-3.877h0.946
	c-0.073,1.225,1.563,5.367,2.591,5.773l0.997-0.836l0.879,0.236l1.712,2.086l0.348-0.123l0.475-1.494l1.115-0.18l1.876,1.01
	l0.879-0.115c-1.146-1.717,2.752-4.414,1.581-6.199l-0.708-0.297l-0.938,0.83l-0.997-1.125l-0.708,0.059L371.45,741.202z"/>
<path fill="#FEFEE9" stroke="#0978AB" stroke-width="1.4173" stroke-linejoin="round" stroke-miterlimit="3.8637" d="
	M356.555,758.09l-1.411-0.236l-0.591-1.488l2.062,0.535l1.168-1.199l1.115-0.123c0.305-0.748,3.001-1.84,3.699-1.436l-0.06,0.779
	C361.693,755.811,357.774,757.499,356.555,758.09z"/>
<polygon fill="#FEFEE9" stroke="#0978AB" stroke-width="1.4173" stroke-linejoin="round" stroke-miterlimit="3.8637" points="
	310.583,780.497 308.936,779.731 308.936,779.37 309.698,778.829 309.756,777.637 311.101,776.44 311.632,777.87 312.691,777.985 
	312.985,778.526 311.58,779.305 311.115,780.256 "/>
<path fill="#FEFEE9" stroke="#0978AB" stroke-width="1.4173" stroke-linejoin="round" stroke-miterlimit="3.8637" d="M358.55,789.62
	l-0.703-0.238l-0.53-0.838l0.118-0.533c0.584-0.604,1.916-1.109,2.757-1.018l0.761-0.658l0.703-0.064l1.175,1.312l-0.291,0.477
	l-2.873,0.305L358.55,789.62z"/>
<path fill="#FEFEE9" stroke="#0978AB" stroke-width="1.4173" stroke-linejoin="round" stroke-miterlimit="3.8637" d="
	M350.805,791.54l-0.76-0.658c0.114-0.84,1.457-2.285,2.047-2.801c-0.258-0.434-0.36-1.328-0.117-1.789l-0.768-1.373l0.465-2.086
	c-0.306-0.469-0.763-1.623-0.531-2.201l1.76,1.125l1.764-0.303c-0.035,0.996,0.32,2.307,0.827,3.162l-0.82,1.248l0.296,0.658
	l0.701,0.18l0.879-0.418l0.591,0.771l-0.524,0.836l-1.294,0.42l-0.524,0.953l0.82,1.43l-0.524,0.418
	C354.099,790.577,351.74,791.141,350.805,791.54z"/>
<path fill="#FEFEE9" stroke="#0978AB" stroke-width="1.4173" stroke-linejoin="round" stroke-miterlimit="3.8637" d="
	M393.785,819.848l-1.292-0.953l0.235-1.371l-1.291-1.666l0.171-0.535l2.704-1.084l0.877,1.609c-0.807,0.832-1.219,2.771-0.997,3.875
	L393.785,819.848z"/>
<path fill="#FEFEE9" stroke="#0978AB" stroke-width="1.4173" stroke-linejoin="round" stroke-miterlimit="3.8637" d="
	M380.301,820.042l-0.937-0.18c-0.439-0.479-0.606-1.779-0.591-2.381l0.584-0.361l1.817,0.18l0.649,1.85L380.301,820.042z"/>
<path fill="#FEFEE9" stroke="#0978AB" stroke-width="1.4173" stroke-linejoin="round" stroke-miterlimit="3.8637" d="
	M336.18,833.958l-0.703-0.771l-0.937,0.418v-1.074l-0.769-0.896l0.701-1.076l-0.177-0.592l-1.995-1.725l0.231-1.076l0.819-0.836
	l1.58,0.238c0.897-0.906,3.581-1.234,4.745-1.205l0.589,0.359c0.579,0.848-0.576,4.119-0.932,4.945l-0.991,0.18l-1.292,1.141
	l-0.223,1.848L336.18,833.958z"/>
<path fill="#FEFEE9" stroke="#0978AB" stroke-width="1.4173" stroke-linejoin="round" stroke-miterlimit="3.8637" d="
	M930.471,405.916l-1.521-1.609l0.063-0.599l1.674,0.101l0.577-1.292l1.029-0.188l1.603,0.693l0.768,1.754l1.068,0.411l-0.886,0.953
	C934.1,406.485,931.722,405.716,930.471,405.916z"/>
<polygon fill="#FEFEE9" stroke="#0978AB" stroke-width="1.4173" stroke-linejoin="round" stroke-miterlimit="3.8637" points="
	512.776,691 512.715,689.391 514.014,688.143 514.725,688.151 514.31,689.161 514.658,689.694 "/>
<path fill="#FEFEE9" stroke="#0978AB" stroke-width="1.4173" stroke-linejoin="round" stroke-miterlimit="3.8637" d="
	M475.216,770.903c-0.328-3.631-0.377-9.254,0.426-12.748c0.451-1.963,1.71-4.742,2.534-6.611s2.438-3.854,3.531-5.592l0.589-0.123
	l0.763,1.197l-0.179,0.592c-3.045,2.072-5.007,6.15-5.471,9.709c-0.037,0.281,0.274,1.307,0.229,1.551
	c-0.191,1.006-0.984,2.1-1.115,3.098c-0.301,2.293-0.164,4.939-0.242,7.268c-0.005,0.162-0.299,1.158-0.355,1.373L475.216,770.903z"
	/>
<path fill="#FEFEE9" stroke="#0978AB" stroke-width="1.4173" stroke-linejoin="round" stroke-miterlimit="3.8637" d="
	M498.299,800.034c0.019-1.438,0.199-3.789,0.834-5.125l0.407-0.123c-0.072,0.873-0.146,4.672-0.768,5.189L498.299,800.034z"/>
<path fill="#FEFEE9" stroke="#0978AB" stroke-width="1.4173" stroke-linejoin="round" stroke-miterlimit="3.8637" d="
	M498.006,801.702c0.082,1.104-0.833,2.775-1.59,3.516l-0.353-0.42C496.292,803.766,497.173,802.356,498.006,801.702z"/>
<path fill="#FEFEE9" stroke="#0978AB" stroke-width="1.4173" stroke-linejoin="round" stroke-miterlimit="3.8637" d="
	M491.935,817.249l-0.229-0.713c0.766-1.193,0.905-6.605,1.418-9.002l0.531-0.533c0.699,2.445-0.552,6.928-0.951,9.592
	L491.935,817.249z"/>
<path fill="#FEFEE9" stroke="#0978AB" stroke-width="1.4173" stroke-linejoin="round" stroke-miterlimit="3.8637" d="
	M490.229,822.555l0.524,0.852c-0.146,1.088-0.826,5.023-1.705,5.76C488.625,828.006,489.86,823.711,490.229,822.555z"/>
<path fill="#FEFEE9" stroke="#0978AB" stroke-width="1.4173" stroke-linejoin="round" stroke-miterlimit="3.8637" d="
	M486.404,834.948l-0.354-0.361c0.068-0.732,1.654-3.367,2.061-4.107l0.348,0.418C488.175,831.805,487.188,834.692,486.404,834.948z"
	/>
<path fill="#FEFEE9" stroke="#0978AB" stroke-width="1.4173" stroke-linejoin="round" stroke-miterlimit="3.8637" d="
	M483.627,848.063l-0.82-0.066l-0.229-0.41c2.277-2.326,0.266-6.553,2.296-8.523h0.644c-1.195,2.459-0.235,3.424-0.412,4.408
	C484.845,844.918,484.084,846.643,483.627,848.063z"/>
<path fill="#FEFEE9" stroke="#0978AB" stroke-width="1.4173" stroke-linejoin="round" stroke-miterlimit="3.8637" d="
	M479.041,862.426c-0.864-2.137-1.579-5.576-0.458-7.752l1.233-1.018l0.584-0.059c-1.464,2.34-1.195,6.113-1.004,8.705
	L479.041,862.426z"/>
<path fill="#FEFEE9" stroke="#0978AB" stroke-width="1.4173" stroke-linejoin="round" stroke-miterlimit="3.8637" d="
	M479.095,868.569c-0.342-1.258-0.453-2.893-0.23-4.18l1.056,0.541c0.241,0.488-0.026,2.947-0.064,3.572L479.095,868.569z"/>
<path fill="#FEFEE9" stroke="#0978AB" stroke-width="1.4173" stroke-linejoin="round" stroke-miterlimit="3.8637" d="
	M827.46,979.211l-0.395,0.779l-4.141-1.365c-1.506-1.945-1.9-2.797-3.93-3.875l0.158-1.227c-0.436-0.938-2.44-4.596-2.082-5.537
	c1.027-1.256,6.367-1.412,7.836-0.477c0.62-0.348,1.888-0.543,2.559-0.225c0.227,1.525,0.492,5.516-0.348,6.945l-1.222,0.871
	l-0.054,1.135L827.46,979.211z"/>
<path fill="#FEFEE9" stroke="#0978AB" stroke-width="1.4173" stroke-linejoin="round" stroke-miterlimit="3.8637" d="
	M554.298,1056.321c0.771-0.225,1.918-0.947,2.335-1.66l0.413-1.971c0.955-0.82,2.539-1.391,3.741-1.66l2.033,1.559l-0.236,1.609
	c-2.784,1.42-4.034,5.078-7.303,5.291C554.794,1058.483,554.199,1057.483,554.298,1056.321z"/>
<path fill="#FEFEE9" stroke="#0978AB" stroke-width="1.4173" stroke-linejoin="round" stroke-miterlimit="3.8637" d="
	M839.318,1121.571l1.62-1.438l1.596,0.98c-0.469,1.779-0.01,4.529,1.083,6.014l-0.952,0.281l-0.958,1.834l0.164,2.52
	c1.59,2.01,6.543,3.85,7.041,5l-1.562,5.406l-0.95,0.477l-1.595-0.98l-2.086,0.658l-0.847-0.297l-0.169-1.84l-4.785-3.92
	l-2.933,0.361c-0.697-0.012-1.92-2.559-2.244-3.119l-4.233-2.359l-0.085-0.68l0.769-1.545l-0.741-1.652l0.399-2.027l-2.251-2.541
	c-0.092-0.332-0.129-1.053,0.104-1.35c1.146-0.209,1.986,0.221,3.026,0.217C832.325,1121.549,835.682,1121.118,839.318,1121.571z"/>
<polygon fill="#FEFEE9" stroke="#0978AB" stroke-width="1.4173" stroke-linejoin="round" stroke-miterlimit="3.8637" points="
	851.002,1157.045 850.486,1156.799 850.038,1154.469 851.79,1154.129 852.428,1154.499 852.997,1155.696 852.815,1156.411 "/>



<path fill="none" stroke="#646464" stroke-width="1.5591" stroke-linejoin="round" stroke-miterlimit="3.8637" d="M901.316,329.709
	l-14.834,2.636l-2.268,2.26l1.133,3.443c1.08,1.809,0.615,3.334,1.5,5.25l2.25,3.75c-3.919,1.362-7.466,4.212-11.5,3l-6.5-4.25
	c-0.65-0.276-3.634-0.241-4.198-0.667c-0.071-0.053-4.933-5.308-5.032-5.449c-2.327-3.297-3.134-6.91-6.236-10.129
	c0.168-0.854,1.537-3.4,2.268-3.768l16.222-8.161"/>
<path fill="none" stroke="#646464" stroke-width="1.5591" stroke-linejoin="round" stroke-miterlimit="3.8637" d="M774.058,333.03
	c4.287,3.68,9.221,7.863,14.108,10.705c5.031,2.925,8.845,3.434,13.371,8.185c0.747,2.952,1.026,6.477,0.779,9.51
	c-1.081,1.757-2.444,4.713-3.804,6.181l-4.702,3.009c-1.775,0.679-4.667,0.542-6.685,0.889l-2.433,2.107
	c-0.176,2.138-1.048,4.856-2.268,6.636l1.37,3.191l-2.386,2.092l-0.047,4.981c2.282,1.446,4.625,3.408,6.4,5.449l-0.449,4.529
	l2.268,4.083l1.875,0.508l3.749,1.015c3.165,0.09,3.933-0.829,8.242,0.718l3.148,3.731c2.399,2.843,4.816,3.131,5.089,6.761
	c0.059,0.764,0.027,3.196-0.347,3.923c-0.492,0.957-2.171,2.401-2.575,3.316c-1.149,2.605-0.549,6.549,0.921,8.91
	c1.454,2.336,5.95,6.733,8.057,8.925l0.921,6.343"/>
<path fill="none" stroke="#646464" stroke-width="1.5591" stroke-linejoin="round" stroke-miterlimit="3.8637" d="M818.662,448.727
	l6.543,0.167c4.895-1.768,8.314-6.088,11.387-10.087c0.482-0.136,5.153-1.412,5.314-1.497c1.641-0.867,4.524-4.272,5.007-6.179
	c-0.359-2.997-0.437-6.363,0-9.359c0.191-0.255,1.702-2.312,1.82-2.41c1.208-1,8.679-5.742,10.156-6.317
	c0.934-0.363,5.554-1.208,6.094-1.497c3.085-1.651,7.692-6.833,11.244-8.426c2.096-0.94,4.962-1.048,6.969-2.097
	c0.947-0.495,1.331-1.01,2.182-1.656l4.362-3.311c2.07-1.852,3.765-4.438,5.906-6.174c1.635-1.326,4.188-1.956,5.787-3.308
	c0,0,3.162,0.971,3.912-0.779s2.75-4,2.75-4s-1.75-0.75-2.75-1.75s-2.25-3.5-0.5-5.25s2.75-2.75,5.75-2.25s6,0,7.75-1.75
	s5-2,6.25-2.5s3.25-1.5,4.75-1.5s6.407,1.541,6.407,1.541"/>
<path fill="none" stroke="#646464" stroke-width="1.5591" stroke-linejoin="round" stroke-miterlimit="3.8637" d="M802.119,471.784
	c0,0-5.022,0.015-6.522-0.485s-1.75-1.5-3.5-3.25s-0.25-4,1-6s-2-4-2.25-6.25s0-4-3.25-6s-2.75-5.75-2.75-5.75s-5-0.25-4.334-2.057
	l0.3-4.426c0.059-0.863,0.274-1.357,0.149-2.214c-0.009-0.062-2.353-6.788-2.433-6.949c-1.196-2.411-3.487-3.916-5.685-5.197
	l-5.89-3.435c-2.595-1.321-11.417-3.532-13.064-4.865c-1.735-1.404-3.309-4.208-4.865-5.898c-1.487-1.614-6.928-2.708-5.178-5.958
	s2.5-5,0.75-6.75s-2.25-2.5-3.75-1s-3.25,2.75-5.25,0.5s-2.5-3.75-2.5-3.75s-3,0.5-6,0.25s-8.75-1.25-6.75-4.25s3-3.25,1.25-5.25
	s-5.25-2.75-7-2.75s-4.75,0.25-4.75,0.25l-5.096-0.006"/>
<path fill="none" stroke="#646464" stroke-width="1.5591" stroke-linejoin="round" stroke-miterlimit="3.8637" d="M781.954,508.572
	c1.491-3.106,3.784-6.972,6.07-9.498c2.378-2.629,7.202-5.593,9.259-8.13c2.345-2.893,1.158-7.526,2.41-10.861
	c1.745-4.651,1.98-2.46,2.426-8.299"/>
<line fill="none" stroke="#646464" stroke-width="1.5591" stroke-linejoin="round" stroke-miterlimit="3.8637" x1="769.175" y1="511.56" x2="781.954" y2="508.572"/>
<path fill="none" stroke="#646464" stroke-width="1.5591" stroke-linejoin="round" stroke-miterlimit="3.8637" d="M678.427,431.386
	l4.951,5.089c2.922,1.364,7.993,1.438,11.104,1.235"/>
<path fill="none" stroke="#646464" stroke-width="1.5591" stroke-linejoin="round" stroke-miterlimit="3.8637" d="M694.497,437.71
	l1.354,0.859l2.739,1.718c0.471,0.511,0.523,0.953,0.858,1.562l1.717,3.124c0.688,1.824,0.68,4.503,1.535,6.195
	c0.321,0.636,0.745,0.831,1.221,1.361c3.089,3.444,5.589,5,9.575,7.419c3.751,2.275,6.306,2.298,9.589,5.911
	c0.985,4.32-0.348,6.146-0.306,9.511c0.033,2.788,0.88,5.667,0.921,8.455c0.038,2.594-1.212,1.142-0.142,5.182l0.308,1.158
	c0.393,0.171,4.758,2.111,4.866,2.125c0.494,0.067,14.164-0.162,15.66-0.265c4.688-0.324,9.438-1.788,14.126-0.72
	c4.397,2.411,7.229,7.735,9.441,11.998c0.417,0.806,0.834,1.189,1.071,2.065c0.041,0.151,0.13,5.668,0.142,6.19"/>
<path fill="none" stroke="#646464" stroke-width="1.5591" stroke-linejoin="round" stroke-miterlimit="3.8637" d="M813.583,529.629
	l-4.109-4.688c-3.827-0.841-9.164,0.015-12.778,1.328l-4.868-2.276l-1.652-4.08l-4.417-0.465c-0.224-0.311-2.707-3.685-2.741-3.781
	c-0.661-1.894-0.756-5.056-1.061-7.096"/>
<path fill="none" stroke="#646464" stroke-width="1.5591" stroke-linejoin="round" stroke-miterlimit="3.8637" d="M813.583,529.629
	l2.229,1.264l4.457,2.528c0.813,0.252,1.33,0.064,2.182,0.105c3.355,0.163,6.559,0.45,9.676,1.885
	c2.632,1.211,5.557,3.563,7.914,5.304c0.511,0.04,5.768,0.493,5.929,0.467c1.537-0.248,8.311-3.944,9.874-4.96l-1.534-4.983
	c1.96,0.479,4.382,0.761,6.234,1.524c1.455,0.601,3,1.146,4.417,1.822c1.83,0.872,3.596,2.103,5.457,2.881
	c5.997,2.513,12.299,4.48,18.375,6.838"/>
<path fill="none" stroke="#646464" stroke-width="1.5591" stroke-linejoin="round" stroke-miterlimit="3.8637" d="M614.069,514.691
	c0.77,1.436,1.5,2.894,2.224,4.353c1.68,0.951,4.146,1.999,5.621,3.183l2.536,2.925c2.481,2.86,4.963,5.396,8.174,7.417
	c4.276,2.69,8.719,5.459,13.337,7.53c3.751,1.684,8.445,2.355,12.001,4.407c3.682,2.125,2.628,3.451,7.551,4.446
	c0.492,0.1,0.76,0.285,1.26,0.255c4.954-0.3,8.736-2.14,14.149-1.325l2.267-2.258c0.084-2.265,1.786-5.739,3.64-7.088l3.244-1.604
	c0.632-0.312,0.94-0.616,1.622-0.801l5.165-0.69c1.007-0.136,1.567-0.403,2.583-0.346c0.072,0.004,6,1.775,6.095,1.827
	c0.233,0.126,2.729,2.796,3.188,3.175c1.444,1.191,3.169,2.247,4.702,3.333l3.66,0.159c1.343-0.841,3.126-2.27,4.56-2.855
	c1.195-0.488,2.979-0.379,4.251-0.745c1.749-0.504,3.138-1.38,5-1.851l3.953-0.996c1.558-0.724,3.247-2.493,4.725-3.461
	c1.554-1.018,3.751-1.838,5.149-3.006c2.85-2.377,5.548-5.505,8.197-8.133l1.842,0.155l2.27,2.724
	c3.693-4.851,7.883-9.504,12.142-13.859"/>
<path fill="none" stroke="#646464" stroke-width="1.5591" stroke-linejoin="round" stroke-miterlimit="3.8637" d="M786.774,566.036
	c3.673-3.553,7.701-7.129,11.929-10.022c0.707-1.666,0.788-3.462,0.866-5.232c0.036-0.812,0.401-3.43,0.811-4.124
	c1.075-1.83,6.146-5.388,7.891-6.474c0.114-0.482,1.303-5.6,1.369-5.731c0.077-0.153,3.605-4.407,3.945-4.823"/>
<path fill="none" stroke="#646464" stroke-width="1.5591" stroke-linejoin="round" stroke-miterlimit="3.8637" d="M586.507,574.848
	l3.494,1.924c3.923,5.322,4.211,9.289,6.755,14.155c2.194,4.197,8.091,8.122,12.091,6.622s5.25-0.25,6.25,0.5s3,4,3.75,6
	s2,7.25,2,8.75s0.5,3.75,2,3.75s6.5,1.5,6.5,1.5l3.75,3"/>
<path fill="none" stroke="#646464" stroke-width="1.5591" stroke-linejoin="round" stroke-miterlimit="3.8637" d="M633.097,621.049
	l3,0.75c0,0,2.25,1.25,3.75,0.75s4.25,0.25,6.25,1s5,0.5,5.75-0.5s6.5-6.25,7.25-7.75s3-6,3-6s3-3,5-3s1.25-2.25,0.75-4.5
	s0.5-3.5,1.75-6.5s2.25-2.25,5.75-1.25s3.25,2,3.75,5s2.25,2.75,3.25,0.75s3-4,3-4s2.5,0,4,0.25s6.5-3.75,6.5-3.75
	s4.182,0.197,7.021-1.086c0.895-1.146,4.504-6.537,4.936-6.917c0.128-0.112,4.081-2.182,4.489-2.401l5.409,0.308
	c5.002-3.101,9.691-8.231,15.425-9.762c1.96-0.524,4.546-0.233,6.425-0.895c2.465-0.868,4.748-2.978,7.205-3.903l3.701-0.6
	c0.722-0.117,1.119-0.3,1.85-0.3c1.379,0.001,3.083,0.75,4.488,0.91c1.584,0.179,3.336,0.106,4.938,0.157l5.856-4.508
	c6.62-0.234,12.786,1.188,19.183,2.733"/>
<path fill="none" stroke="#646464" stroke-width="1.5591" stroke-linejoin="round" stroke-miterlimit="3.8637" d="M786.774,566.036
	c0.458,1.98-0.846,5.246-2.246,6.618c-4.145,1.813-6.095,2.035-9.418,5.083l-1.513,4.061c-0.104,1.893-0.488,6.06,1,7.25
	c2.763,2.209,3.892,2.151,6.79,5.123l0.897,4.369c-1.771,5.208-4.027,6.964-6.567,11.126c-0.999,1.635-1.592,3.598-2.55,5.264
	c-1.649,2.867-3.776,5.945-6,8.42c2.38,6.771,2.901,14.061,2.668,21.176l-0.095,2.91c-0.517,1.988-1.853,4.055-2.55,6.016
	c-2.409,6.768-4.587,13.648-6.875,20.459c-0.376,1.121-0.521,2.59-0.756,3.764c-1.826,1.646-4.116,4.23-4.937,6.615l1.062,2.709
	c2.134,0.76,5.249,4.125,6.001,6.178c0.799,2.176,1.475,11.744,1.062,13.85c-0.465,2.375-2.21,5.17-2.999,7.52
	c-1.188,3.539-2.264,7.82-2.244,11.586c-4.223,1.172-10.513,3.295-14.079,6.002c-0.045,4.162-1.149,8.893-2.527,12.791l-2.551,2.104
	c-2.323,0.23-11.76,1.514-13.652,2.99l-3.183,3.309c-1.647,1.713-3.392,4.305-4.141,6.619l0.896,2.559
	c-0.448,2.555-3.991,6.137-5.976,7.518"/>
<path fill="none" stroke="#646464" stroke-width="1.5591" stroke-linejoin="round" stroke-miterlimit="3.8637" d="M500.97,799.895
	c5.162,2.621,10.59,5.137,16.062,7.053c2.814-0.648,3.946,0.318,5.564-0.648c1.812-1.084,2.834-4.889,4.25-6.75
	c2.824-3.713,4.482-5.66,7.825-8.09c2.231-1.623,4.157-3.854,6.425-5.41c2.04-1.4,5.973-4.316,8.25-5.25
	c3.887-1.594,5.937-2.164,9.639-4.801c3.596-0.199,7.294,1.949,9.141,1.969l6.488-0.996l3.244-0.498l5.553,2.266
	c0.684,3.139,2.211,3.854,3.59,6.174c1.276,2.148,2.124,5.062,3.165,7.379l4.938,3.018c0.716,3.68-1.405,5.291-2.243,8.273
	c-0.053,0.188-0.905,6.234-0.899,6.322c0.008,0.113,1.517,4.281,1.654,4.666c-2.277,4.586,1.718,9.896,5.408,12.348l4.041-0.447
	c1.724-1.5,3.7-2.932,5.692-4.055c1.759,0.518,4.369,1.641,6.143,1.812c1.8,0.176,4.595-0.422,6.447-0.592"/>
<line fill="none" stroke="#646464" stroke-width="1.5591" stroke-linejoin="round" stroke-miterlimit="3.8637" x1="517.718" y1="905.68" x2="512.436" y2="907.313"/>
<path fill="none" stroke="#646464" stroke-width="1.5591" stroke-linejoin="round" stroke-miterlimit="3.8637" d="M570.914,1016.139
	c0-0.621-0.036-7.467,0-7.631c0.664-2.971,6.045-13.182,7.183-16.209c-1.208-3.541-4.784-13.18-3.75-17l2.283-10.191
	c0.82-3.031,1.622-4.67,2.103-7.771c0.101-0.654-1.394-7.23-1.394-8.445c0-4.982,3.095-12.77,4.536-17.541
	c0.231-0.764,2.312-5.262,2.472-6.051c2.979,0.248,11.046,2.717,13.5,1.75c0.032-0.014,5.627-0.873,5.75-1
	c1.541-1.598,4.165-4.967,5.75-6.5c2.409-2.332,4.244-7.482,7.747-6.92c3.394,0.543,5.126,4.635,8.436,5.594
	c4.823,0.5,7.875-2.168,12.212-2.855c1.985,0.666,4.983,1.295,6.78,2.273c2.025,1.104,3.696,3.406,5.716,4.537l3.212,0.908
	l1.606,0.455c2.538-0.361,6.076-2.215,7.841-4.066c2.565-0.666,7.49,0.717,9.805,1.67"/>
<path fill="none" stroke="#646464" stroke-width="1.5591" stroke-linejoin="round" stroke-miterlimit="3.8637" d="M576.097,750.299
	c0,0-1,1.5-3,1.5s-3,1.25-5,1.5s-3.75,1.75-2.5,3.25s1.25,1.5,1.25,3.5s1.25,3.25,2.75,3.5s4.75,1.25,5.5,3.25s3,4,5.25,1
	s2.75-4.25,4-3.75s5.75,2.75,6.75-1s1.25-4-0.75-6s-3.25-4.25-4.25-5.5s-2,1.5-2.5,2.75s-2.75,0.75-2.75-1.25s-0.5-2-1.75-3.5
	S576.097,750.299,576.097,750.299z"/>
<path fill="none" stroke="#646464" stroke-width="1.5591" stroke-linejoin="round" stroke-miterlimit="3.8637" d="M510.006,749.213
	c0,0,3.591,1.086,4.841,2.086s3.75-2.5,6.25-0.75s9,2.75,9-1.5s-0.75-10.5,2.25-6.5s4,3.25,5,1s3.25-5,4-6s3.5-2.5,5-2.25
	s4.25-0.25,4.25-0.25s0.75-5,2-4.75s3.5,0.5,5.25-1.75s4.5-5,4.5-5s2.5-0.5,3.5-2s5.75-2,6.75-0.25s2.75,2,4,0.75s5.5-4,8.5-3.25
	c2.062,0.516,3.18,1.502,4.488,1.584l1.172,4.729l3.374,2.777c0,0,1.216,2.16,2.591,2.41s3.25,0.5,4,1.375s2.125,1.25,2.75,1.25
	s8.625,0.75,9.625,1.125s3.25-0.25,3.25-0.25l2.375-1.75l4.388-0.188l-0.396,2.977l1.135,2.461c0,0,1.875-1.5,3-1.75
	s1.75-0.25,2.375,0.375s3,1,4.625,0.375s3.5-0.625,4.125,0s3.25,1.25,3.875,1s1.25-1.625,1-3.625s-1.25-3.25-0.625-4.375
	s1.625-2.375,1.625-2.375l2.875-3.875"/>
<path fill="none" stroke="#646464" stroke-width="1.5591" stroke-linejoin="round" stroke-miterlimit="3.8637" d="M818.662,448.727
	c0,0-0.315,3.822-1.565,4.822s0.25,3.75,1.25,5.25s0.5,3-0.75,4s-3.25,2-3.25,3.5s0.75,1.25-1.5,2.5s-5,1.75-6,0.25
	s-1.5-2.75-2.75-1.5s-2.456,1.47-1.978,4.235"/>
<path fill="none" stroke="#646464" stroke-width="1.5591" stroke-linejoin="round" stroke-miterlimit="3.8637" d="M693.236,402.444
	c0,0,3.361,3.854,3.861,4.854s1.5,1.5,1.5,1.5l6.5,0.25c0,0,4.25,3.5,5.5,4.75s2.5,3.25,3.25,6.25s1.25,5,1,7.25s-1.25,2.25-2.5,1
	s-2.25-2-3.25-3.5s-2.5-1.75-3.5-0.75s-5,4.75-5,4.75l-2.25,2.75c0,0-2.25,0-3.25,0.25s-0.979,4.322-0.614,5.911"/>
<path fill="#646464" stroke="#646464" stroke-width="1.5591" stroke-linejoin="round" stroke-miterlimit="3.8637" d="M820.097,326.299
	c-3,1-3,1.75-3.75,3.5s-3.75,9,0.25,9.5s4.75,0,6,1s1.5,1.5,1.75,3.5s1,7,0.75,8s2.25,1.5-1.75,1.75s-3.5,1.5-3.5,3.5s0,4,1.5,5.5
	s2.75,1.25,3.25-1.25s2.25-2.75,3-1.25s3.75,3.5,3.75,5s1,2.5,2,3s3.75,1.75,4,4s0.75,2.25,4,2.5s4.75,0,6.75,0.25
	s3.5-1.25,1.5-2.75s-2.75-3-3-5.25s-0.5-6.5,3-6.5s5.25-0.25,6.25-1.25s1.25-2,0-3s-7-1.75-5.25-3.75s1.5-3.75,1.5-5.25
	s-0.5-2,0.75-3.25s0.75-2.25-0.5-3.5s-2.75-2.75-4-2.75s-3-1-1.5-2.5s2-4.5,0.25-5.75s-2.5-1.75-2.5-4.25s-1.5-5.5-1.5-7
	s0.75-2.75-2-3.5s-3.25-5.25-5.25-2.5s-1.75,3.75-4.25,4.25s-2.25,1.75-3.75,3.25s-3.75,3.75-3.75,3.75
	S823.097,325.299,820.097,326.299z"/>

<path fill="none" stroke="#646464" stroke-width="1.5591" stroke-linejoin="round" stroke-miterlimit="3.8637" d="M633.097,621.049
	c-0.75,1.75-5.25,1.75-8.25,2.25s-1,3.75,1,5.5s-0.5,3.25-1,5.25s-0.75,2.5-2.25,3.75s-0.25,3.75,0.25,5.5s1.5,2.25,0,5.5
	s-4.433,8.727-3.957,11.49c0.375,2.18,0.63,5.119,2.056,6.975c3.372,4.389,9.641,5.566,14.009,9.729
	c-4.224,0.578-10.397,4.273-13.772,6.639l-8.126-3.102l-8.267,1.371l-4.938-4.186l-14.361-3.609l-9.921-0.867l-8.575-4.619
	l-6.448-1.518l-10.417,2.672l-11.812,0.865l-3.214-0.145l-4.889-2.217"/>
<path fill="none" stroke="#646464" stroke-width="1.5591" stroke-linejoin="round" stroke-miterlimit="3.8637" d="M621.182,683.631
	c0,0,3.165,3.418,4.165,5.168s2.25,4.25-1.25,5.75s-0.5,7.75-0.5,7.75l0.5,6.75c0,0-0.75,4-2,5.75s-0.5,8.75-0.5,8.75
	s2.75-1.5,4-2.5s1.75,1.25,2.75,3.5s7.75-1.25,9-2s3.75-3,3.75-3s6.526,4.029,6.707,4.039c2.946,0.137,10.798,2.719,13.347,4.381
	c0.116,0.076,2.312,2.594,2.552,2.861c-0.29,1.896-0.449,4.014-0.897,5.869c-0.41,1.697-1.549,3.572-1.795,5.266
	c-0.656,4.506,2.172,9.879,2.102,14.604c0.418,0.297,4.485,3.242,4.652,3.314l7.04,1.816c2.468,0.154,5.302-0.943,7.796-0.895
	c2.565,0.053,5.675,0.836,8.244,1.215c4.208,0.936,9.443,1.992,13.796,1.521c2.782,1.453,5.732,4.014,7.654,6.484
	c0.81,2.047,1.121,5.545,0.449,7.676c-2.004,3.51-5.363,3.799-7.938,6.461c-0.187,2.287-0.025,5.004,0.589,7.225
	c3.862,2.979,8.741,4.193,12.309,7.541c0.793,2.084,0.188,5.795-0.897,7.676c1.026,2.066,2.262,4.199,3.142,6.324
	c0.929,2.242,1.36,4.906,2.41,7.074l2.103,2.26c5.015,2.941,9.979,6.076,15.141,8.75c2.478-0.482,4.98-0.908,7.488-1.195
	l1.251,0.957l2.504,1.91c2.353,2.893,3.708,6.98,5.859,10.09c0.128,0.186,2.406,2.906,2.528,3.014
	c1.028,0.91,2.494,1.586,3.612,2.412c3.12,2.305,6.138,4.924,9,7.539c2.245-0.412,8.744-1.705,10.629-2.996l0.6-1.555
	c1.898-4.936,0.678-3.436,0.89-7.928c0.11-2.326,1.3-7.781,2.103-9.93l6.583-17.652c1.283-3.441,1.792-5.471,3.292-8.826
	l3.591-5.111c1.309-1.863,3.573-4.852,4.346-7.068c1.281-3.68-0.098-8.52-1.818-11.891l0.348-1.455
	c0.869-3.645,1.234-3.658,3.691-6.217c2.616-2.725,6.93-7.6,11.244-7.061c1.765,1.154,4.149,5.863,4.951,7.695"/>
<path fill="none" stroke="#646464" stroke-width="1.5591" stroke-linejoin="round" stroke-miterlimit="3.8637" d="M690.843,762.018
	c-1.464,1.576-4.684,2.914-6.804,3.033l-3.211,4.186l-2.032,0.746l-4.062,1.492c-0.051,0.031-3.423,3.736-3.474,3.824
	c-1.299,2.279-2.231,5.48-3.234,7.941c-3.535,1.654-6.08,4.523-8.544,7.41c-0.657,0.77-0.867,1.377-1.686,1.973
	c-2.203,1.604-5.994,2.029-8.126,3.682l-3.67,4.592l-1.835,2.295c-1.973,0.283-4.34-0.033-6.188,0.449
	c-2.811,0.732-4.086,4.307-6.755,5.107c-2.356-0.51-5.497-2.539-7.04-4.367l-3.117,2.1c0.455,5.654,0.564,11.49,0.282,17.156
	c0.12,2.539-0.824,9.639-2.243,11.736c-1.33,1.965-4.021,3.52-5.527,5.412l-3.104,4.912c-4.372,6.92-7.333,14.68-12.771,20.955
	c-1.241,1.432-3.467,2.797-4.937,4.057c-2.179,1.869-4.258,3.855-6.447,5.711c-3.394,2.875-8.208,6.201-10.938,9.617
	c-0.622,0.779-0.787,1.346-1.291,2.207l-2.582,4.412c-0.825,1.859-1.126,4.223-1.797,6.17c-0.643,1.867-1.504,3.73-2.244,5.564
	c-2.925,1.908-4.394,0.756-6.754,1.348c-2.971,0.744-5.58,3.566-8.386,4.502c-0.594,0.197-0.977,0.092-1.6,0.148
	c-5.541,0.518-5.906-0.734-10.827-1.367l-3.606-0.006c-5.426-0.008-8.144,0.795-13.488-1.32l-5.086-2.014"/>
<path fill="none" stroke="#646464" stroke-width="1.5591" stroke-linejoin="round" stroke-miterlimit="3.8637" d="M716.804,806.602
	c-2.251,0.586-4.619,1.371-6.896,1.795c-2.083,0.389-4.741,0.154-6.733,0.744c-0.098,0.029-5.265,2.748-5.409,2.854
	c-1.849,1.338-4.42,4.371-6.331,6.062c-0.506,0.449-0.926,0.588-1.299,1.152c-0.048,0.074-3.055,6.961-3.141,7.219
	c-0.651,1.941-0.648,4.258-1.346,6.172c-1.581,4.332-6.128,6.666-6.875,11.428c-0.604,3.848,1.296,10.924,1.04,12.945
	c-0.017,0.131-2.903,8.314-3.118,8.875c-0.155,0.406-1.336,2.648-1.37,2.859c-0.355,2.213,0.215,5.174,0.164,7.525
	c-1.82,1.822-7.475,8.932-8.244,10.975c-0.155,0.414-1.008,7.021-1.18,7.975c-0.409,2.26-0.995,4.527-1.489,6.771
	c0.928,3.764,3.083,6.928,5.252,10.041c0.586,0.842,1.093,1.219,1.504,2.16l0.913,4.66l0.457,2.33
	c0.41,2.516,0.837,5.084,1.488,7.551c1.853,1.086,4.565,2.289,6.188,3.631c1.434,1.184,3.099,4.715,2.716,6.645l-2.574,3.471
	c-0.169,2.396,0.161,5.453,1.062,7.701c-0.721,2.869-4.983,5.168-7.393,6.332c-1.106,0.535-2.52,0.656-3.615,1.203
	c-0.454,0.229-2.438,1.873-2.716,1.959c-2.551,0.793-7.748,1.014-11.15,1.951c-2.819,2.041-2.444,6.051-3.921,8.752
	c-1.532,2.801-4.199,5.252-5.881,7.996c-0.724,1.18-1.285,3.205-1.795,4.525c-0.79,2.045-2.117,4.684-2.575,6.791
	c-0.723,3.316-0.573,8.82,0.614,12.08c0.924,2.535,2.968,5.291,3.612,7.855c0.155,0.613-0.069,9.199-0.166,10.719
	c1.96,2.953,4.087,5.867,6.331,8.611l0.309,2.266c-1.895,2.527-4.45,2.947-6.024,4.521l-1.717,2.715l-0.858,1.359
	c-0.196,1.854,0.266,4.707,1.206,6.342c1.938,1.941,4.706,3.77,7.229,4.838c4.167,5.236,2.589,14.379,4.371,20.84
	c2.39,3.533,7.571,4.76,11.457,5.9c0.717,1.102,3.562,4.268,4.959,4.535c1.235,0.236,1.959,0.186,3.211,0.305l6.423,0.613"/>

</svg>
